<?xml version="1.0" encoding="UTF-8"?>
<svg version="1.1" xmlns="http://www.w3.org/2000/svg" width="512" height="512">
<path d="M0 0 C1.01790619 0.00215515 2.03581238 0.0043103 3.08456421 0.00653076 C17.69363523 0.05620146 32.02575853 0.30709809 46.375 3.3125 C47.34985352 3.51117676 48.32470703 3.70985352 49.32910156 3.91455078 C97.7109774 14.03517194 141.69928269 35.9516877 177.375 70.3125 C178.3640332 71.26068604 178.3640332 71.26068604 179.37304688 72.22802734 C188.86130305 81.37247479 197.6012044 90.66984009 205.375 101.3125 C206.23306152 102.46355017 207.09113451 103.61459177 207.94921875 104.765625 C213.98736829 112.95680614 219.34595521 121.47054105 224.375 130.3125 C224.73948242 130.94430176 225.10396484 131.57610352 225.47949219 132.22705078 C247.08534998 169.97532572 256.85198095 212.74189997 256.6875 255.9375 C256.68534485 256.95540619 256.6831897 257.97331238 256.68096924 259.02206421 C256.63129854 273.63113523 256.38040191 287.96325853 253.375 302.3125 C253.07698486 303.77478027 253.07698486 303.77478027 252.77294922 305.26660156 C242.65232806 353.6484774 220.7358123 397.63678269 186.375 433.3125 C185.74287598 433.97185547 185.11075195 434.63121094 184.45947266 435.31054688 C175.31502521 444.79880305 166.01765991 453.5387044 155.375 461.3125 C154.22394983 462.17056152 153.07290823 463.02863451 151.921875 463.88671875 C143.73224019 469.92427396 135.22961724 475.30707302 126.375 480.3125 C125.66778809 480.7146875 124.96057617 481.116875 124.23193359 481.53125 C101.09654164 494.5566741 75.92537591 503.30551461 49.9375 508.625 C49.21860596 508.77235596 48.49971191 508.91971191 47.7590332 509.0715332 C33.08339502 511.86090125 18.55831162 512.66142619 3.64770508 512.62817383 C0.70811513 512.6250221 -2.2304558 512.64854926 -5.16992188 512.67382812 C-18.54306192 512.71848737 -31.43916711 511.51301542 -44.625 509.3125 C-46.33055054 509.03031616 -46.33055054 509.03031616 -48.07055664 508.74243164 C-91.33802759 500.97044532 -132.38793216 480.98345309 -165.625 452.3125 C-166.37007813 451.67828125 -167.11515625 451.0440625 -167.8828125 450.390625 C-181.38779833 438.57948485 -194.05918743 425.82889772 -204.625 411.3125 C-205.48149066 410.16255169 -206.33826433 409.01281411 -207.1953125 407.86328125 C-213.23534209 399.67315742 -218.61867614 391.16870382 -223.625 382.3125 C-224.0271875 381.60528809 -224.429375 380.89807617 -224.84375 380.16943359 C-237.8691741 357.03404164 -246.61801461 331.86287591 -251.9375 305.875 C-252.08485596 305.15610596 -252.23221191 304.43721191 -252.3840332 303.6965332 C-255.35789088 288.05024391 -255.99800362 272.57681954 -255.9375 256.6875 C-255.93534485 255.66959381 -255.9331897 254.65168762 -255.93096924 253.60293579 C-255.88129854 238.99386477 -255.63040191 224.66174147 -252.625 210.3125 C-252.42632324 209.33764648 -252.22764648 208.36279297 -252.02294922 207.35839844 C-241.90232806 158.9765226 -219.9858123 114.98821731 -185.625 79.3125 C-184.99287598 78.65314453 -184.36075195 77.99378906 -183.70947266 77.31445312 C-174.56502521 67.82619695 -165.26765991 59.0862956 -154.625 51.3125 C-153.47394983 50.45443848 -152.32290823 49.59636549 -151.171875 48.73828125 C-142.98224019 42.70072604 -134.47961724 37.31792698 -125.625 32.3125 C-124.91778809 31.9103125 -124.21057617 31.508125 -123.48193359 31.09375 C-100.34654164 18.0683259 -75.17537591 9.31948539 -49.1875 4 C-48.46860596 3.85264404 -47.74971191 3.70528809 -47.0090332 3.5534668 C-31.36274391 0.57960912 -15.88931954 -0.06050362 0 0 Z " fill="#FEFEFE" transform="translate(255.625,-0.3125)"/>
<path d="M0 0 C1.01790619 0.00215515 2.03581238 0.0043103 3.08456421 0.00653076 C17.69363523 0.05620146 32.02575853 0.30709809 46.375 3.3125 C47.34985352 3.51117676 48.32470703 3.70985352 49.32910156 3.91455078 C97.7109774 14.03517194 141.69928269 35.9516877 177.375 70.3125 C178.3640332 71.26068604 178.3640332 71.26068604 179.37304688 72.22802734 C188.86130305 81.37247479 197.6012044 90.66984009 205.375 101.3125 C206.23306152 102.46355017 207.09113451 103.61459177 207.94921875 104.765625 C213.98618723 112.95520396 219.3572246 121.46566042 224.375 130.3125 C224.92969971 131.28413086 224.92969971 131.28413086 225.49560547 132.27539062 C242.375 162.1237256 242.375 162.1237256 242.375 171.3125 C82.655 171.3125 -77.065 171.3125 -241.625 171.3125 C-239.58831946 164.52356488 -237.53816909 158.31922187 -234.625 151.9375 C-234.23618652 151.08317383 -233.84737305 150.22884766 -233.44677734 149.34863281 C-221.40651823 123.34623997 -205.50351402 99.95171657 -185.625 79.3125 C-184.99287598 78.65314453 -184.36075195 77.99378906 -183.70947266 77.31445312 C-174.56502521 67.82619695 -165.26765991 59.0862956 -154.625 51.3125 C-153.47394983 50.45443848 -152.32290823 49.59636549 -151.171875 48.73828125 C-142.98224019 42.70072604 -134.47961724 37.31792698 -125.625 32.3125 C-124.91778809 31.9103125 -124.21057617 31.508125 -123.48193359 31.09375 C-100.34654164 18.0683259 -75.17537591 9.31948539 -49.1875 4 C-48.46860596 3.85264404 -47.74971191 3.70528809 -47.0090332 3.5534668 C-31.36274391 0.57960912 -15.88931954 -0.06050362 0 0 Z " fill="#F89938" transform="translate(255.625,-0.3125)"/>
<path d="M0 0 C159.72 0 319.44 0 484 0 C476.90838312 18.91097835 476.90838312 18.91097835 473.3125 26.375 C472.89097656 27.25293213 472.46945312 28.13086426 472.03515625 29.03540039 C463.00963143 47.45643018 451.31070337 64.42313745 438 80 C437.36320312 80.74894531 436.72640625 81.49789062 436.0703125 82.26953125 C424.25297532 95.76520621 411.51448412 108.43558025 397 119 C395.85005169 119.85649066 394.70031411 120.71326433 393.55078125 121.5703125 C385.36065742 127.61034209 376.85620382 132.99367614 368 138 C366.93918213 138.60328125 366.93918213 138.60328125 365.85693359 139.21875 C342.72154164 152.2441741 317.55037591 160.99301461 291.5625 166.3125 C290.84360596 166.45985596 290.12471191 166.60721191 289.3840332 166.7590332 C274.70839502 169.54840125 260.18331162 170.34892619 245.27270508 170.31567383 C242.33311513 170.3125221 239.3945442 170.33604926 236.45507812 170.36132812 C223.08193808 170.40598737 210.18583289 169.20051542 197 167 C195.86296631 166.81187744 194.72593262 166.62375488 193.55444336 166.42993164 C150.28697241 158.65794532 109.23706784 138.67095309 76 110 C75.25492187 109.36578125 74.50984375 108.7315625 73.7421875 108.078125 C60.23720167 96.26698485 47.56581257 83.51639772 37 69 C36.14350934 67.85005169 35.28673567 66.70031411 34.4296875 65.55078125 C0 18.86501587 0 18.86501587 0 0 Z " fill="#1E8942" transform="translate(14,342)"/>
<path d="M0 0 C12.79231995 11.00176434 22.94984444 26.74192832 24.66088867 43.78515625 C24.7748023 46.65548313 24.79251883 49.50280483 24.75 52.375 C24.73259766 53.89202515 24.73259766 53.89202515 24.71484375 55.43969727 C24.29092363 74.77637696 16.04300409 91.76474226 2.07421875 105.140625 C-13.15860717 118.20445607 -31.78848816 123.27668446 -51.50390625 122.10888672 C-69.35263777 120.66668949 -85.78958081 109.95562261 -97.375 96.8125 C-110.19446776 80.38612106 -113.26405248 61.30263246 -111.625 40.9375 C-110.95417756 36.33818028 -109.50002419 32.18405011 -107.625 27.9375 C-107.20089844 26.92816406 -106.77679688 25.91882813 -106.33984375 24.87890625 C-97.57887529 5.72191394 -81.75603179 -5.77877781 -62.63671875 -13.2265625 C-41.09687051 -19.74640341 -17.50707731 -13.39352628 0 0 Z " fill="#F6F7F9" transform="translate(299.625,203.0625)"/>
<path d="M0 0 C12.79231995 11.00176434 22.94984444 26.74192832 24.66088867 43.78515625 C24.7748023 46.65548313 24.79251883 49.50280483 24.75 52.375 C24.73259766 53.89202515 24.73259766 53.89202515 24.71484375 55.43969727 C24.29092363 74.77637696 16.04300409 91.76474226 2.07421875 105.140625 C-13.15860717 118.20445607 -31.78848816 123.27668446 -51.50390625 122.10888672 C-69.35263777 120.66668949 -85.78958081 109.95562261 -97.375 96.8125 C-110.19446776 80.38612106 -113.26405248 61.30263246 -111.625 40.9375 C-110.95417756 36.33818028 -109.50002419 32.18405011 -107.625 27.9375 C-107.20089844 26.92816406 -106.77679688 25.91882813 -106.33984375 24.87890625 C-97.57887529 5.72191394 -81.75603179 -5.77877781 -62.63671875 -13.2265625 C-41.09687051 -19.74640341 -17.50707731 -13.39352628 0 0 Z M-48.625 -6.0625 C-48.955 -5.4025 -49.285 -4.7425 -49.625 -4.0625 C-51.6875 -3.4375 -51.6875 -3.4375 -53.625 -3.0625 C-53.625 -3.7225 -53.625 -4.3825 -53.625 -5.0625 C-55.08447705 -5.00243922 -56.54279272 -4.9136311 -58 -4.8125 C-58.81210938 -4.76609375 -59.62421875 -4.7196875 -60.4609375 -4.671875 C-62.81338927 -4.2702908 -62.81338927 -4.2702908 -63.9140625 -2.015625 C-64.14867187 -1.37109375 -64.38328125 -0.7265625 -64.625 -0.0625 C-65.65625 -0.145 -66.6875 -0.2275 -67.75 -0.3125 C-72.28262353 -0.02007268 -74.20474188 1.00585018 -77.625 3.9375 C-78.57731597 6.05869128 -78.57731597 6.05869128 -78.625 7.9375 C-79.346875 7.999375 -80.06875 8.06125 -80.8125 8.125 C-84.57615098 9.21227695 -86.16370956 10.92925613 -88.625 13.9375 C-88.79 14.824375 -88.955 15.71125 -89.125 16.625 C-89.29 17.388125 -89.455 18.15125 -89.625 18.9375 C-90.40875 19.22625 -91.1925 19.515 -92 19.8125 C-94.98528943 20.7748915 -94.98528943 20.7748915 -96.5 24.3125 C-97.75074886 28.23762171 -97.75074886 28.23762171 -96.625 31.9375 C-97.25921875 32.17210937 -97.8934375 32.40671875 -98.546875 32.6484375 C-100.80750739 33.76040908 -100.80750739 33.76040908 -101.453125 36.1015625 C-101.59234375 36.91367188 -101.7315625 37.72578125 -101.875 38.5625 C-102.02453125 39.37976563 -102.1740625 40.19703125 -102.328125 41.0390625 C-102.42609375 41.66554687 -102.5240625 42.29203125 -102.625 42.9375 C-101.965 42.9375 -101.305 42.9375 -100.625 42.9375 C-100.625 44.5875 -100.625 46.2375 -100.625 47.9375 C-102.11 48.4325 -102.11 48.4325 -103.625 48.9375 C-103.625 51.9075 -103.625 54.8775 -103.625 57.9375 C-102.635 58.2675 -101.645 58.5975 -100.625 58.9375 C-100.625 60.5875 -100.625 62.2375 -100.625 63.9375 C-101.285 63.9375 -101.945 63.9375 -102.625 63.9375 C-102.39639942 65.39934058 -102.14129608 66.85705419 -101.875 68.3125 C-101.73578125 69.12460937 -101.5965625 69.93671875 -101.453125 70.7734375 C-100.80750739 73.11459092 -100.80750739 73.11459092 -98.546875 74.2265625 C-97.91265625 74.46117187 -97.2784375 74.69578125 -96.625 74.9375 C-96.8725 75.618125 -97.12 76.29875 -97.375 77 C-97.75266284 81.4375384 -96.19452063 83.32628182 -93.625 86.9375 C-91.51158874 87.97275132 -91.51158874 87.97275132 -89.625 87.9375 C-89.3775 89.05125 -89.13 90.165 -88.875 91.3125 C-88.01494661 94.98365198 -88.01494661 94.98365198 -85.5 96.375 C-84.88125 96.560625 -84.2625 96.74625 -83.625 96.9375 C-83.625 97.5975 -83.625 98.2575 -83.625 98.9375 C-81.975 98.9375 -80.325 98.9375 -78.625 98.9375 C-78.2846875 100.0821875 -78.2846875 100.0821875 -77.9375 101.25 C-76.2907595 104.62189721 -75.06621198 105.48454383 -71.625 106.9375 C-67.91606092 107.18849867 -67.91606092 107.18849867 -64.625 106.9375 C-64.39039063 107.58203125 -64.15578125 108.2265625 -63.9140625 108.890625 C-62.81338927 111.1452908 -62.81338927 111.1452908 -60.4609375 111.546875 C-59.64882812 111.59328125 -58.83671875 111.6396875 -58 111.6875 C-57.18273437 111.74421875 -56.36546875 111.8009375 -55.5234375 111.859375 C-54.89695313 111.88515625 -54.27046875 111.9109375 -53.625 111.9375 C-53.625 111.2775 -53.625 110.6175 -53.625 109.9375 C-51.6875 110.3125 -51.6875 110.3125 -49.625 110.9375 C-49.295 111.5975 -48.965 112.2575 -48.625 112.9375 C-45.325 112.9375 -42.025 112.9375 -38.625 112.9375 C-38.295 112.2775 -37.965 111.6175 -37.625 110.9375 C-35.5625 110.3125 -35.5625 110.3125 -33.625 109.9375 C-33.625 110.5975 -33.625 111.2575 -33.625 111.9375 C-28.4556511 111.53193869 -28.4556511 111.53193869 -23.625 109.9375 C-23.13 108.4525 -23.13 108.4525 -22.625 106.9375 C-21.59375 107.02 -20.5625 107.1025 -19.5 107.1875 C-14.96737647 106.89507268 -13.04525812 105.86914982 -9.625 102.9375 C-8.67268403 100.81630872 -8.67268403 100.81630872 -8.625 98.9375 C-7.7175 98.875625 -6.81 98.81375 -5.875 98.75 C-1.80010106 97.73127526 -0.79437335 96.47277509 1.375 92.9375 C1.519375 92.050625 1.66375 91.16375 1.8125 90.25 C2.0909375 89.1053125 2.0909375 89.1053125 2.375 87.9375 C3.15875 87.64875 3.9425 87.36 4.75 87.0625 C7.73528943 86.1001085 7.73528943 86.1001085 9.25 82.5625 C10.50074886 78.63737829 10.50074886 78.63737829 9.375 74.9375 C10.00921875 74.70289063 10.6434375 74.46828125 11.296875 74.2265625 C13.55750739 73.11459092 13.55750739 73.11459092 14.203125 70.7734375 C14.34234375 69.96132813 14.4815625 69.14921875 14.625 68.3125 C14.77453125 67.49523437 14.9240625 66.67796875 15.078125 65.8359375 C15.17609375 65.20945312 15.2740625 64.58296875 15.375 63.9375 C14.715 63.6075 14.055 63.2775 13.375 62.9375 C13.75 61 13.75 61 14.375 58.9375 C15.035 58.6075 15.695 58.2775 16.375 57.9375 C16.375 54.6375 16.375 51.3375 16.375 47.9375 C15.385 47.9375 14.395 47.9375 13.375 47.9375 C13.375 46.2875 13.375 44.6375 13.375 42.9375 C14.035 42.9375 14.695 42.9375 15.375 42.9375 C15.14639942 41.47565942 14.89129608 40.01794581 14.625 38.5625 C14.41617188 37.34433594 14.41617188 37.34433594 14.203125 36.1015625 C13.55750739 33.76040908 13.55750739 33.76040908 11.296875 32.6484375 C10.66265625 32.41382813 10.0284375 32.17921875 9.375 31.9375 C9.74625 30.9165625 9.74625 30.9165625 10.125 29.875 C10.50266284 25.4374616 8.94452063 23.54871818 6.375 19.9375 C4.26158874 18.90224868 4.26158874 18.90224868 2.375 18.9375 C2.148125 17.865 1.92125 16.7925 1.6875 15.6875 C0.22842332 11.51870948 -0.87553469 10.16932459 -4.625 7.9375 C-5.945 7.9375 -7.265 7.9375 -8.625 7.9375 C-8.851875 7.174375 -9.07875 6.41125 -9.3125 5.625 C-10.9592405 2.25310279 -12.18378802 1.39045617 -15.625 -0.0625 C-19.33393908 -0.31349867 -19.33393908 -0.31349867 -22.625 -0.0625 C-23.12 -1.5475 -23.12 -1.5475 -23.625 -3.0625 C-27.04057141 -4.86516269 -29.79365501 -5.281434 -33.625 -5.0625 C-33.625 -4.4025 -33.625 -3.7425 -33.625 -3.0625 C-35.5625 -3.4375 -35.5625 -3.4375 -37.625 -4.0625 C-38.12 -5.0525 -38.12 -5.0525 -38.625 -6.0625 C-41.925 -6.0625 -45.225 -6.0625 -48.625 -6.0625 Z " fill="#30327E" transform="translate(299.625,203.0625)"/>
<path d="M0 0 C2.06863252 3.10294878 2.99552155 5.70083561 4.12890625 9.2421875 C4.52400391 10.47324219 4.91910156 11.70429688 5.32617188 12.97265625 C5.52911865 13.61348145 5.73206543 14.25430664 5.94116211 14.91455078 C6.55865067 16.86285456 7.18398992 18.8085023 7.81054688 20.75390625 C10.25794476 28.42055035 12.15870196 34.90619996 12 43 C12.66 43 13.32 43 14 43 C13.83250244 41.84951172 13.66500488 40.69902344 13.49243164 39.51367188 C12.95924009 35.22837205 12.95528612 31.08922191 13.12109375 26.78125 C13.15651024 25.66623108 13.15651024 25.66623108 13.19264221 24.52868652 C13.26839885 22.1855526 13.35279339 19.84282566 13.4375 17.5 C13.49080917 15.89845653 13.54354873 14.29689399 13.59570312 12.6953125 C13.72389253 8.79662385 13.85982229 4.89827526 14 1 C14.66 1 15.32 1 16 1 C16.14376103 5.71390883 16.28612883 10.42785699 16.42724609 15.1418457 C16.47537237 16.74309404 16.52386904 18.34433129 16.57275391 19.94555664 C16.6432446 22.25664448 16.7123714 24.56776986 16.78125 26.87890625 C16.80312378 27.58648575 16.82499756 28.29406525 16.84753418 29.02308655 C16.97494175 33.35157939 17.01978141 37.6703433 17 42 C17.11214844 41.23042969 17.22429687 40.46085937 17.33984375 39.66796875 C19.68703629 25.99902398 24.45848791 13.06913028 29 0 C30.99702246 5.72353195 28.62054126 11.78585813 27.375 17.5 C27.12621094 18.716875 26.87742187 19.93375 26.62109375 21.1875 C24.89512261 29.22485817 22.44113321 36.53530842 19 44 C19.66 44 20.32 44 21 44 C21.1549292 43.44892578 21.3098584 42.89785156 21.46948242 42.33007812 C23.27661188 36.38253146 25.82997429 31.62198622 29.3125 26.5 C29.80016846 25.76531494 30.28783691 25.03062988 30.7902832 24.27368164 C32.18469671 22.17637794 33.59140615 20.08779333 35 18 C36.22965931 16.14616001 37.45895283 14.29207719 38.6875 12.4375 C39.45703044 11.29079125 40.22720869 10.14451372 41 9 C41.495 9.99 41.495 9.99 42 11 C41.03125 13.36328125 41.03125 13.36328125 39.5 16.3125 C38.94183594 17.38886719 38.38367188 18.46523437 37.80859375 19.57421875 C36.91333984 21.26998047 36.91333984 21.26998047 36 23 C35.43410156 24.09957031 34.86820312 25.19914062 34.28515625 26.33203125 C30.65598179 33.26943278 26.66819341 39.71425629 22 46 C24.76906996 43.31237327 27.35835614 40.60359104 29.8125 37.625 C32.55299629 34.38940133 35.53997051 31.65446307 38.765625 28.91015625 C41.38447076 26.67131783 43.9423298 24.37090573 46.5 22.0625 C47.3559375 21.29035156 48.211875 20.51820313 49.09375 19.72265625 C49.7228125 19.15417969 50.351875 18.58570313 51 18 C51.66 18.33 52.32 18.66 53 19 C52.57589844 19.4125 52.15179688 19.825 51.71484375 20.25 C46.59524511 25.29083558 41.83699262 30.58041068 37.25 36.109375 C33.51985922 40.53891718 29.85422596 43.82989325 25 47 C28.40146885 45.74581263 31.20737358 44.30954687 34.16015625 42.21484375 C39.04916878 38.88220909 44.14250654 36.18840855 49.4375 33.5625 C50.33404297 33.10423828 51.23058594 32.64597656 52.15429688 32.17382812 C53.00958984 31.74650391 53.86488281 31.31917969 54.74609375 30.87890625 C55.51622803 30.4929126 56.2863623 30.10691895 57.07983398 29.70922852 C57.71348877 29.47518311 58.34714355 29.2411377 59 29 C59.66 29.33 60.32 29.66 61 30 C57.40445566 32.40896485 53.79707812 34.79962525 50.1875 37.1875 C49.18267578 37.86103516 48.17785156 38.53457031 47.14257812 39.22851562 C41.29978278 43.0798759 35.55177102 46.31859792 29.07543945 48.9855957 C26.83735881 49.8192845 26.83735881 49.8192845 26 52 C26.52722656 51.69707031 27.05445313 51.39414063 27.59765625 51.08203125 C34.46015262 47.54746497 41.35592829 45.80877593 48.875 44.1875 C49.88570557 43.96876221 50.89641113 43.75002441 51.93774414 43.5246582 C56.38088853 42.60448037 60.44667171 41.88012187 65 42 C60.38194507 45.07870329 55.19689729 46.37381356 49.9375 48.0625 C48.84244141 48.42666016 47.74738281 48.79082031 46.61914062 49.16601562 C40.05782953 51.28017245 33.89498912 52.68036474 27 53 C27 53.66 27 54.32 27 55 C27.66 54.67 28.32 54.34 29 54 C31.11017578 53.90215283 33.22349537 53.86922401 35.3359375 53.8671875 C36.62886719 53.86589844 37.92179687 53.86460937 39.25390625 53.86328125 C40.27121826 53.86642334 40.27121826 53.86642334 41.30908203 53.86962891 C43.33243641 53.87488934 45.35555963 53.86972977 47.37890625 53.86328125 C55.30441917 53.87110505 63.11557194 54.18577654 71 55 C71 55.33 71 55.66 71 56 C61.2264392 56.73465692 51.49005807 57.10638902 41.6875 57.125 C40.69161865 57.12951172 39.6957373 57.13402344 38.66967773 57.13867188 C37.73067627 57.13673828 36.7916748 57.13480469 35.82421875 57.1328125 C34.57257935 57.13112061 34.57257935 57.13112061 33.2956543 57.12939453 C31.07016165 57.00395466 29.13613153 56.61839426 27 56 C27 56.66 27 57.32 27 58 C28.0725 58.103125 29.145 58.20625 30.25 58.3125 C43.54047026 60.03704199 56.31319545 64.87323242 69 69 C69 69.33 69 69.66 69 70 C61.2119949 69.48356562 53.87417082 67.94952378 46.3125 66.0625 C45.22388672 65.79759766 44.13527344 65.53269531 43.01367188 65.25976562 C37.64248118 63.94390553 32.3025102 62.57027126 27 61 C27.98097656 61.46148437 28.96195312 61.92296875 29.97265625 62.3984375 C37.38333232 65.95441522 44.4785427 69.73167258 51.3125 74.3125 C52.25331421 74.94260986 52.25331421 74.94260986 53.21313477 75.58544922 C56.04560069 77.5246619 58.70183455 79.43634251 61 82 C55.39789574 80.34692006 50.33216499 77.84971387 45.125 75.25 C44.26519531 74.83234375 43.40539062 74.4146875 42.51953125 73.984375 C36.87385894 71.17438939 31.90237272 67.96654325 27 64 C26.67 64.33 26.34 64.66 26 65 C26.61746094 65.46148437 27.23492187 65.92296875 27.87109375 66.3984375 C34.34649429 71.38558008 39.68539305 76.81269929 45 83 C45.69867188 83.76183594 46.39734375 84.52367187 47.1171875 85.30859375 C47.75914062 86.01113281 48.40109375 86.71367187 49.0625 87.4375 C49.63097656 88.05496094 50.19945312 88.67242187 50.78515625 89.30859375 C52 91 52 91 52 94 C51.5153125 93.50371094 51.030625 93.00742187 50.53125 92.49609375 C45.30097603 87.19541225 39.90834504 82.16235387 34.1171875 77.4765625 C29.90917168 74.03364046 27.07611258 70.48233547 24 66 C23.01 65.505 23.01 65.505 22 65 C22.52207031 65.76699219 23.04414063 66.53398437 23.58203125 67.32421875 C28.53430975 74.74010197 32.95454042 82.3672174 37.125 90.25 C37.62233643 91.17901123 38.11967285 92.10802246 38.63208008 93.06518555 C39.08607178 93.93570557 39.54006348 94.80622559 40.0078125 95.703125 C40.62100342 96.87343262 40.62100342 96.87343262 41.24658203 98.06738281 C41.49520996 98.70514648 41.74383789 99.34291016 42 100 C41.67 100.66 41.34 101.32 41 102 C38.620448 98.47079838 36.25504325 94.93262688 33.90161133 91.38598633 C33.10128295 90.18396488 32.29732362 88.98435195 31.48950195 87.78735352 C26.98061938 81.1008063 23.06959154 74.89823708 21 67 C20.34 67 19.68 67 19 67 C19.29132813 67.62519531 19.58265625 68.25039063 19.8828125 68.89453125 C23.3663934 77.07765997 25.42816741 85.40041426 27.375 94.0625 C27.78709717 95.86521362 27.78709717 95.86521362 28.20751953 97.7043457 C28.58046143 99.41497192 28.58046143 99.41497192 28.9609375 101.16015625 C29.18571777 102.18761963 29.41049805 103.21508301 29.64208984 104.27368164 C29.98825335 106.91052197 29.85941374 108.51275115 29 111 C27.57460149 106.82950386 26.1699017 102.65271777 24.7824707 98.46948242 C24.30965631 97.05296319 23.83162436 95.63817275 23.34790039 94.2253418 C20.22760831 85.09775843 18.17507433 76.7486002 18 67 C17.34 67 16.68 67 16 67 C16.2475 68.3303125 16.2475 68.3303125 16.5 69.6875 C18.11862237 81.29533471 16.7320469 93.35261092 16 105 C15.34 105 14.68 105 14 105 C13.83055186 101.03506717 13.67021771 97.06987381 13.51782227 93.10424805 C13.4390741 91.10251279 13.3533966 89.10105398 13.26757812 87.09960938 C13.00927088 80.2630776 12.99646913 73.77197496 14 67 C13.34 67 12.68 67 12 67 C12.020625 67.66 12.04125 68.32 12.0625 69 C11.80614094 81.3052351 7.12325395 92.54091264 3 104 C2.67 104 2.34 104 2 104 C2.54840025 91.3045343 5.21642127 78.36060108 11 67 C10.34 67 9.68 67 9 67 C8.7525 67.825 8.505 68.65 8.25 69.5 C5.77896269 76.41890447 2.20821753 82.46448547 -1.9375 88.5 C-2.81986416 89.8028076 -3.70138279 91.10618829 -4.58203125 92.41015625 C-4.9992041 93.02648926 -5.41637695 93.64282227 -5.84619141 94.27783203 C-7.98279122 97.46690843 -9.9959121 100.72665644 -12 104 C-12.495 103.01 -12.495 103.01 -13 102 C-11.93945312 99.453125 -11.93945312 99.453125 -10.28125 96.25 C-9.67796875 95.08339844 -9.0746875 93.91679687 -8.453125 92.71484375 C-8.13150391 92.10366699 -7.80988281 91.49249023 -7.47851562 90.86279297 C-6.52124621 89.04044625 -5.58001559 87.21051931 -4.640625 85.37890625 C-0.91908628 78.19997588 3.1550229 71.47987693 8 65 C5.06528438 67.84578484 2.33241032 70.75691765 -0.3125 73.875 C-3.25874347 77.27206951 -6.38130405 80.22476449 -9.80859375 83.12890625 C-13.24574734 86.0636595 -16.56148926 89.13201031 -19.8984375 92.1796875 C-22 94 -22 94 -24 95 C-22.65925383 92.03795237 -21.16093147 89.88529116 -18.91796875 87.5390625 C-18.31533203 86.90226562 -17.71269531 86.26546875 -17.09179688 85.609375 C-16.14916992 84.62710938 -16.14916992 84.62710938 -15.1875 83.625 C-10.10239004 78.31438376 -10.10239004 78.31438376 -5.3203125 72.734375 C-3.23285088 70.27440339 -1.30098156 68.4854445 1.3125 66.625 C2.35857422 65.87089844 2.35857422 65.87089844 3.42578125 65.1015625 C3.94527344 64.73804688 4.46476562 64.37453125 5 64 C1.74888751 65.20307949 -0.90147077 66.51240302 -3.6875 68.5625 C-8.39444852 71.78051583 -13.35818881 74.36803683 -18.4375 76.9375 C-19.24340576 77.35136963 -20.04931152 77.76523926 -20.87963867 78.19165039 C-21.63994385 78.5705542 -22.40024902 78.94945801 -23.18359375 79.33984375 C-23.86993896 79.68394287 -24.55628418 80.02804199 -25.26342773 80.38256836 C-25.83649658 80.5863208 -26.40956543 80.79007324 -27 81 C-27.66 80.67 -28.32 80.34 -29 80 C-18.66619239 72.84324728 -8.45293851 66.22931598 3 61 C-0.14703557 61.50758638 -3.04642894 62.33628059 -6.04296875 63.390625 C-11.7002599 65.31740906 -17.46697531 66.53860371 -23.3125 67.75 C-24.91834961 68.09998047 -24.91834961 68.09998047 -26.55664062 68.45703125 C-27.58595703 68.67230469 -28.61527344 68.88757813 -29.67578125 69.109375 C-31.0666394 69.40279785 -31.0666394 69.40279785 -32.4855957 69.70214844 C-34.99950708 69.99994161 -36.61855743 69.79369795 -39 69 C-34.95336024 67.5759682 -30.90066214 66.17115524 -26.84179688 64.7824707 C-25.46701625 64.30928816 -24.09389981 63.83123733 -22.72265625 63.34790039 C-14.17518713 60.33941619 -6.15161337 58.18014138 3 58 C3 57.34 3 56.68 3 56 C2.01 56.495 2.01 56.495 1 57 C-1.29129631 57.09811643 -3.58551107 57.13078025 -5.87890625 57.1328125 C-6.56500473 57.13376923 -7.25110321 57.13472595 -7.95799255 57.13571167 C-9.41478568 57.13639299 -10.87158183 57.13454205 -12.32836914 57.13037109 C-14.52953174 57.12507926 -16.73048488 57.13028768 -18.93164062 57.13671875 C-26.01692738 57.13974032 -32.97078216 56.9962671 -40 56 C-40 55.67 -40 55.34 -40 55 C-30.39327557 54.11224989 -20.83314937 53.89089287 -11.1875 53.875 C-10.02428223 53.87048828 -8.86106445 53.86597656 -7.66259766 53.86132812 C-6.02556885 53.86422852 -6.02556885 53.86422852 -4.35546875 53.8671875 C-3.37215576 53.86831543 -2.38884277 53.86944336 -1.37573242 53.87060547 C1 54 1 54 3 55 C3 54.34 3 53.68 3 53 C2.31647461 52.98654541 1.63294922 52.97309082 0.92871094 52.95922852 C-8.21542788 52.51566954 -16.21079507 49.94740521 -24.75 46.9375 C-26.14018785 46.45901448 -27.53081129 45.98179256 -28.921875 45.50585938 C-32.28638368 44.35172489 -35.64472113 43.18073861 -39 42 C-39 41.67 -39 41.34 -39 41 C-31.94132158 41.5263133 -25.2441111 42.6878499 -18.375 44.375 C-17.48554688 44.58382812 -16.59609375 44.79265625 -15.6796875 45.0078125 C-11.52522865 46.00977022 -7.52474434 47.11458089 -3.5390625 48.6640625 C-0.16268768 50.17657979 -0.16268768 50.17657979 3 50 C2.01902344 49.53851563 1.03804687 49.07703125 0.02734375 48.6015625 C-9.29807357 44.12629356 -17.8753701 39.05199063 -26.35644531 33.13867188 C-28.88067712 31.38985768 -31.44017398 29.69617651 -34 28 C-33.34 27.67 -32.68 27.34 -32 27 C-29.83618164 27.87695312 -29.83618164 27.87695312 -27.16015625 29.28125 C-26.18401367 29.79059082 -25.20787109 30.29993164 -24.20214844 30.82470703 C-23.16606445 31.37755371 -22.12998047 31.93040039 -21.0625 32.5 C-19.49483887 33.32733643 -19.49483887 33.32733643 -17.89550781 34.17138672 C-11.04733291 37.81797032 -4.38998446 41.59038263 2 46 C2.99 46.66 3.98 47.32 5 48 C2.31237327 45.23093004 -0.39640896 42.64164386 -3.375 40.1875 C-6.61292966 37.44502941 -9.34993361 34.45678271 -12.09375 31.2265625 C-15.04382403 27.78077931 -18.120852 24.45072815 -21.1796875 21.1015625 C-23 19 -23 19 -24 17 C-21.16830031 18.29541329 -19.04539282 19.68402069 -16.79296875 21.828125 C-15.9122168 22.65763672 -15.9122168 22.65763672 -15.01367188 23.50390625 C-14.41103516 24.08011719 -13.80839844 24.65632813 -13.1875 25.25 C-11.99478908 26.38157961 -10.80077991 27.51179243 -9.60546875 28.640625 C-9.01451416 29.19919189 -8.42355957 29.75775879 -7.81469727 30.33325195 C-5.99377938 32.00571347 -4.12307504 33.59774045 -2.2265625 35.18359375 C0.16997389 37.21512593 2.1085873 39.14524442 3.8125 41.8125 C5.6345802 45.01912956 5.6345802 45.01912956 8 46 C7.21689453 44.84951172 7.21689453 44.84951172 6.41796875 43.67578125 C1.46569025 36.25989803 -2.95454042 28.6327826 -7.125 20.75 C-7.62233643 19.82098877 -8.11967285 18.89197754 -8.63208008 17.93481445 C-9.08607178 17.06429443 -9.54006348 16.19377441 -10.0078125 15.296875 C-10.62100342 14.12656738 -10.62100342 14.12656738 -11.24658203 12.93261719 C-11.49520996 12.29485352 -11.74383789 11.65708984 -12 11 C-11.67 10.34 -11.34 9.68 -11 9 C-8.620448 12.52920162 -6.25504325 16.06737312 -3.90161133 19.61401367 C-3.10128295 20.81603512 -2.29732362 22.01564805 -1.48950195 23.21264648 C3.01938062 29.8991937 6.93040846 36.10176292 9 44 C9.66 44 10.32 44 11 44 C10.67749268 43.30197266 10.35498535 42.60394531 10.02270508 41.88476562 C6.49575764 33.90021213 4.40197647 26.04071655 2.6875 17.5 C2.42388672 16.2521875 2.16027344 15.004375 1.88867188 13.71875 C0 4.61387987 0 4.61387987 0 0 Z " fill="#2F317D" transform="translate(241,201)"/>
<path d="M0 0 C2.06863252 3.10294878 2.99552155 5.70083561 4.12890625 9.2421875 C4.52400391 10.47324219 4.91910156 11.70429688 5.32617188 12.97265625 C5.52911865 13.61348145 5.73206543 14.25430664 5.94116211 14.91455078 C6.55865067 16.86285456 7.18398992 18.8085023 7.81054688 20.75390625 C10.25794476 28.42055035 12.15870196 34.90619996 12 43 C12.66 43 13.32 43 14 43 C13.83250244 41.84951172 13.66500488 40.69902344 13.49243164 39.51367188 C12.95924009 35.22837205 12.95528612 31.08922191 13.12109375 26.78125 C13.14470474 26.03790405 13.16831573 25.29455811 13.19264221 24.52868652 C13.26839885 22.1855526 13.35279339 19.84282566 13.4375 17.5 C13.49080917 15.89845653 13.54354873 14.29689399 13.59570312 12.6953125 C13.72389253 8.79662385 13.85982229 4.89827526 14 1 C14.66 1 15.32 1 16 1 C16.14376103 5.71390883 16.28612883 10.42785699 16.42724609 15.1418457 C16.47537237 16.74309404 16.52386904 18.34433129 16.57275391 19.94555664 C16.6432446 22.25664448 16.7123714 24.56776986 16.78125 26.87890625 C16.80312378 27.58648575 16.82499756 28.29406525 16.84753418 29.02308655 C16.94441762 32.31456485 16.99258782 35.58937937 16.95117188 38.88256836 C16.77344838 41.90785602 16.77344838 41.90785602 18 44 C14.7 44.66 11.4 45.32 8 46 C2.44975577 37.84593749 -2.51112328 29.47090629 -7.125 20.75 C-7.62233643 19.82098877 -8.11967285 18.89197754 -8.63208008 17.93481445 C-9.08607178 17.06429443 -9.54006348 16.19377441 -10.0078125 15.296875 C-10.62100342 14.12656738 -10.62100342 14.12656738 -11.24658203 12.93261719 C-11.49520996 12.29485352 -11.74383789 11.65708984 -12 11 C-11.67 10.34 -11.34 9.68 -11 9 C-8.620448 12.52920162 -6.25504325 16.06737312 -3.90161133 19.61401367 C-3.10128295 20.81603512 -2.29732362 22.01564805 -1.48950195 23.21264648 C3.01938062 29.8991937 6.93040846 36.10176292 9 44 C9.66 44 10.32 44 11 44 C10.67749268 43.30197266 10.35498535 42.60394531 10.02270508 41.88476562 C6.49575764 33.90021213 4.40197647 26.04071655 2.6875 17.5 C2.42388672 16.2521875 2.16027344 15.004375 1.88867188 13.71875 C0 4.61387987 0 4.61387987 0 0 Z " fill="#44468A" transform="translate(241,201)"/>
<path d="M0 0 C6.97011677 0.52560618 13.59193795 1.64171149 20.375 3.3125 C21.28531982 3.53252686 22.19563965 3.75255371 23.13354492 3.97924805 C29.88759762 5.64478723 36.47284874 7.58103504 43 10 C38.59881347 12.74009355 35.32337851 11.73271157 30.42773438 10.80566406 C24.40191689 9.38933944 18.59247934 7.40496025 12.75 5.375 C11.51636719 4.95476562 10.28273437 4.53453125 9.01171875 4.1015625 C6.00486871 3.07597024 3.00118615 2.04202515 0 1 C0 0.67 0 0.34 0 0 Z " fill="#44468A" transform="translate(202,242)"/>
<path d="M0 0 C-9.08141897 3.42008567 -18.19596893 5.86712117 -27.6875 7.875 C-28.73873047 8.1021167 -29.78996094 8.3292334 -30.87304688 8.56323242 C-31.86755859 8.7666626 -32.86207031 8.97009277 -33.88671875 9.1796875 C-35.22029419 9.45401611 -35.22029419 9.45401611 -36.58081055 9.73388672 C-39.03696351 10.00406602 -40.6696659 9.76447688 -43 9 C-38.89632488 7.58222725 -34.78863866 6.17693504 -30.67700195 4.7824707 C-29.28231559 4.30759135 -27.88872822 3.82947034 -26.49633789 3.34790039 C-6.35021076 -3.61324795 -6.35021076 -3.61324795 0 0 Z " fill="#4D4E8F" transform="translate(245,261)"/>
<path d="M0 0 C2.44941194 0.15974426 4.60844626 0.49450285 7 1 C7.77730469 1.16371094 8.55460937 1.32742188 9.35546875 1.49609375 C20.08885116 3.98970785 30.52995791 7.59430158 41 11 C41 11.33 41 11.66 41 12 C33.24356143 11.47653271 25.91330571 9.98239504 18.375 8.125 C16.75464844 7.74021484 16.75464844 7.74021484 15.1015625 7.34765625 C9.2160937 5.91935345 3.61550187 4.27067509 -2 2 C-1.34 1.34 -0.68 0.68 0 0 Z " fill="#404288" transform="translate(269,259)"/>
<path d="M0 0 C1.31291636 3.70848203 0.70495748 6.47216742 -0.109375 10.26953125 C-0.36976563 11.48833984 -0.63015625 12.70714844 -0.8984375 13.96289062 C-1.17945313 15.23326172 -1.46046875 16.50363281 -1.75 17.8125 C-2.14832031 19.7006543 -2.14832031 19.7006543 -2.5546875 21.62695312 C-5.25199765 34.04636419 -5.25199765 34.04636419 -8 39 C-9.485 39.495 -9.485 39.495 -11 40 C-10.77431112 30.9319019 -7.88288103 22.83781326 -4.9375 14.375 C-4.45930279 12.97559616 -3.98208165 11.5758584 -3.50585938 10.17578125 C-2.34845815 6.77993347 -1.17794531 3.38878448 0 0 Z " fill="#414388" transform="translate(270,201)"/>
<path d="M0 0 C3.00861358 4.51292037 4.29218338 9.55346697 5.94116211 14.69482422 C6.55460541 16.60047559 7.18248831 18.50145914 7.81054688 20.40234375 C9.93526767 26.98863047 11.57247487 33.08459348 12 40 C9 39 9 39 7.51171875 36.32421875 C5.18616696 30.38215328 4.10384998 24.03967657 2.8125 17.8125 C2.53986328 16.54212891 2.26722656 15.27175781 1.98632812 13.96289062 C0 4.54898966 0 4.54898966 0 0 Z " fill="#424489" transform="translate(241,201)"/>
<path d="M0 0 C5.7482733 2.23190413 11.22348509 4.96113069 16.75 7.6875 C17.79671875 8.19216797 18.8434375 8.69683594 19.921875 9.21679688 C26.57485616 12.50586444 32.34630172 16.18717716 38 21 C37.67 21.66 37.34 22.32 37 23 C26.63202819 18.12255728 17.03417914 12.70433829 7.64355469 6.13476562 C5.97155569 4.98036109 4.27417753 3.87228982 2.5703125 2.765625 C1.72210938 2.18296875 0.87390625 1.6003125 0 1 C0 0.67 0 0.34 0 0 Z " fill="#3C3D85" transform="translate(207,228)"/>
<path d="M0 0 C0.99 0.33 1.98 0.66 3 1 C2.319375 1.66 1.63875 2.32 0.9375 3 C-1.27164814 5.19673719 -3.29756546 7.49959552 -5.3125 9.875 C-8.25874347 13.27206951 -11.38130405 16.22476449 -14.80859375 19.12890625 C-18.24574734 22.0636595 -21.56148926 25.13201031 -24.8984375 28.1796875 C-27 30 -27 30 -29 31 C-27.65925383 28.03795237 -26.16093147 25.88529116 -23.91796875 23.5390625 C-23.31533203 22.90226562 -22.71269531 22.26546875 -22.09179688 21.609375 C-21.46337891 20.95453125 -20.83496094 20.2996875 -20.1875 19.625 C-15.1012687 14.31243554 -15.1012687 14.31243554 -10.30859375 8.73828125 C-8.27949542 6.33151657 -6.37627237 4.45071542 -3.875 2.5625 C-3.21242187 2.04816406 -2.54984375 1.53382813 -1.8671875 1.00390625 C-1.25101563 0.67261719 -0.63484375 0.34132813 0 0 Z " fill="#424489" transform="translate(246,265)"/>
<path d="M0 0 C2.83169969 1.29541329 4.95460718 2.68402069 7.20703125 4.828125 C7.79419922 5.38113281 8.38136719 5.93414062 8.98632812 6.50390625 C9.58896484 7.08011719 10.19160156 7.65632812 10.8125 8.25 C12.00521092 9.38157961 13.19922009 10.51179243 14.39453125 11.640625 C14.98548584 12.19911133 15.57644043 12.75759766 16.18530273 13.33300781 C18.00666872 15.00612592 19.87718087 16.60012123 21.7734375 18.1875 C24.14935787 20.20222188 26.10424403 22.11819929 27.8125 24.75 C29.80152656 27.92937683 29.80152656 27.92937683 32 30 C22.25025735 28.20744642 15.11713519 18.0357149 9 11 C8.30132812 10.21496094 7.60265625 9.42992187 6.8828125 8.62109375 C4.38955793 5.81230282 2.08720565 3.13080847 0 0 Z " fill="#424489" transform="translate(217,218)"/>
<path d="M0 0 C0.66 0.33 1.32 0.66 2 1 C-1.57204403 3.4129911 -5.15954883 5.80200247 -8.75 8.1875 C-9.74644531 8.86103516 -10.74289062 9.53457031 -11.76953125 10.22851562 C-18.57201584 14.72693285 -25.35988314 18.14813173 -33 21 C-33.66 20.34 -34.32 19.68 -35 19 C-34.05125 18.46375 -33.1025 17.9275 -32.125 17.375 C-30.03904816 16.18951846 -27.97679446 14.98551305 -25.94140625 13.71484375 C-20.27958112 10.19214839 -14.44076655 7.08246301 -8.5 4.0625 C-7.69780029 3.64846924 -6.89560059 3.23443848 -6.0690918 2.80786133 C-5.314104 2.42911865 -4.55911621 2.05037598 -3.78125 1.66015625 C-3.10126953 1.31605713 -2.42128906 0.97195801 -1.72070312 0.61743164 C-1.15287109 0.4136792 -0.58503906 0.20992676 0 0 Z " fill="#3F4187" transform="translate(300,230)"/>
<path d="M0 0 C5.77683662 5.77683662 6.54777233 17.15660711 8.25 24.8125 C8.53101563 26.02615234 8.81203125 27.23980469 9.1015625 28.49023438 C9.36195313 29.65490234 9.62234375 30.81957031 9.890625 32.01953125 C10.12813477 33.07245361 10.36564453 34.12537598 10.61035156 35.21020508 C10.98462958 37.88995126 10.88384136 39.47544283 10 42 C8.58074312 37.77257342 7.17554883 33.54079195 5.7824707 29.3046875 C5.30799676 27.86823333 4.82989058 26.43297308 4.34790039 24.99902344 C-1.24324657 8.34750789 -1.24324657 8.34750789 -1 1 C-0.67 0.67 -0.34 0.34 0 0 Z " fill="#46488C" transform="translate(260,270)"/>
<path d="M0 0 C11.43591437 4.72525628 23.76043626 11.15401661 32.375 20.20703125 C26.77289574 18.55395131 21.70716499 16.05674512 16.5 13.45703125 C15.64019531 13.039375 14.78039062 12.62171875 13.89453125 12.19140625 C8.90225296 9.70663041 4.44216036 6.9862966 0.06201172 3.53027344 C-1.44493066 2.34827233 -3.03145491 1.26939464 -4.625 0.20703125 C-2.625 -0.79296875 -2.625 -0.79296875 0 0 Z " fill="#3E4087" transform="translate(269.625,262.79296875)"/>
<path d="M0 0 C9.57531761 1.59953818 17.04510116 12.06726722 23 19 C24.04800781 20.14275391 24.04800781 20.14275391 25.1171875 21.30859375 C25.75914062 22.01113281 26.40109375 22.71367187 27.0625 23.4375 C27.63097656 24.05496094 28.19945312 24.67242187 28.78515625 25.30859375 C30 27 30 27 30 30 C29.27296875 29.25556641 29.27296875 29.25556641 28.53125 28.49609375 C23.30097603 23.19541225 17.90834504 18.16235387 12.1171875 13.4765625 C7.90884155 10.03337036 5.03857416 6.51445303 2 2 C1.34 1.34 0.68 0.68 0 0 Z " fill="#404187" transform="translate(263,265)"/>
<path d="M0 0 C0.66 0.33 1.32 0.66 2 1 C1.57589844 1.4125 1.15179688 1.825 0.71484375 2.25 C-4.40475489 7.29083558 -9.16300738 12.58041068 -13.75 18.109375 C-17.46960676 22.52640803 -21.01631228 26.0289554 -26 29 C-26.99 28.67 -27.98 28.34 -29 28 C-27.948125 26.9790625 -27.948125 26.9790625 -26.875 25.9375 C-24.84930771 23.92315613 -23.00359085 21.82918698 -21.1875 19.625 C-18.44700371 16.38940133 -15.46002949 13.65446307 -12.234375 10.91015625 C-9.61552924 8.67131783 -7.0576702 6.37090573 -4.5 4.0625 C-3.6440625 3.29035156 -2.788125 2.51820313 -1.90625 1.72265625 C-0.96265625 0.86994141 -0.96265625 0.86994141 0 0 Z " fill="#404187" transform="translate(292,219)"/>
<path d="M0 0 C0.99 0.66 1.98 1.32 3 2 C2.05125 2.53625 1.1025 3.0725 0.125 3.625 C-1.98303475 4.82360425 -4.0679464 6.04213923 -6.12890625 7.3203125 C-11.45822727 10.6207042 -16.91727498 13.59348203 -22.5 16.4375 C-23.56045532 16.98712402 -23.56045532 16.98712402 -24.64233398 17.54785156 C-26.39771706 18.42884149 -28.19638717 19.22250802 -30 20 C-30.66 19.67 -31.32 19.34 -32 19 C-21.66619239 11.84324728 -11.45293851 5.22931598 0 0 Z " fill="#3C3E85" transform="translate(244,262)"/>
<path d="M0 0 C0.33 0.66 0.66 1.32 1 2 C0.03125 4.36328125 0.03125 4.36328125 -1.5 7.3125 C-2.05816406 8.38886719 -2.61632812 9.46523437 -3.19140625 10.57421875 C-3.78824219 11.70472656 -4.38507813 12.83523437 -5 14 C-5.56589844 15.09957031 -6.13179688 16.19914062 -6.71484375 17.33203125 C-10.34401821 24.26943278 -14.33180659 30.71425629 -19 37 C-19.99 36.34 -20.98 35.68 -22 35 C-21.34 35 -20.68 35 -20 35 C-19.8450708 34.44892578 -19.6901416 33.89785156 -19.53051758 33.33007812 C-17.72338812 27.38253146 -15.17002571 22.62198622 -11.6875 17.5 C-11.19983154 16.76531494 -10.71216309 16.03062988 -10.2097168 15.27368164 C-8.81530329 13.17637794 -7.40859385 11.08779333 -6 9 C-4.77034069 7.14616001 -3.54104717 5.29207719 -2.3125 3.4375 C-1.54296956 2.29079125 -0.77279131 1.14451372 0 0 Z " fill="#3A3C84" transform="translate(282,210)"/>
<path d="M0 0 C6.42010105 7.65473587 11.32747911 16.10834828 15.9375 24.9375 C16.44345703 25.88173828 16.94941406 26.82597656 17.47070312 27.79882812 C17.94314453 28.69923828 18.41558594 29.59964844 18.90234375 30.52734375 C19.33023193 31.33937256 19.75812012 32.15140137 20.19897461 32.98803711 C20.46331299 33.65198486 20.72765137 34.31593262 21 35 C20.67 35.66 20.34 36.32 20 37 C17.620448 33.47079838 15.25504325 29.93262688 12.90161133 26.38598633 C12.10128295 25.18396488 11.29732362 23.98435195 10.48950195 22.78735352 C5.95051482 16.05616207 2.29168729 9.8678506 0 2 C-0.66 1.67 -1.32 1.34 -2 1 C-1.34 0.67 -0.68 0.34 0 0 Z " fill="#3E4086" transform="translate(262,266)"/>
<path d="M0 0 C0 0.99 0 1.98 0 3 C-4.39249301 3.02494208 -8.78494717 3.04297329 -13.17749023 3.05493164 C-14.66805745 3.05992328 -16.15861986 3.06671894 -17.64916992 3.07543945 C-25.49484991 3.12015168 -33.21373172 3.1148321 -41 2 C-41 1.67 -41 1.34 -41 1 C-27.34628986 -0.26172899 -13.69966067 -0.10117918 0 0 Z " fill="#363881" transform="translate(242,255)"/>
<path d="M0 0 C-4.63279294 3.08852863 -9.84709234 4.37465653 -15.125 6.0625 C-16.2284375 6.42666016 -17.331875 6.79082031 -18.46875 7.16601562 C-24.70033777 9.1679687 -30.46608807 10.55105256 -37 11 C-37 10.34 -37 9.68 -37 9 C-30.25885309 5.62731068 -23.61444428 3.76089889 -16.25 2.25 C-15.23550781 2.02957031 -14.22101563 1.80914062 -13.17578125 1.58203125 C-8.69273383 0.63358101 -4.59897272 -0.12597096 0 0 Z " fill="#373982" transform="translate(306,243)"/>
<path d="M0 0 C0.66 0 1.32 0 2 0 C4.31684343 12.45303342 2.78926878 25.44216988 2 38 C1.34 38 0.68 38 0 38 C-0.16944814 34.03506717 -0.32978229 30.06987381 -0.48217773 26.10424805 C-0.5609259 24.10251279 -0.6466034 22.10105398 -0.73242188 20.09960938 C-0.99072912 13.2630776 -1.00353087 6.77197496 0 0 Z " fill="#3C3D85" transform="translate(255,268)"/>
<path d="M0 0 C4.05272458 -0.0250883 8.10541786 -0.04303967 12.15820312 -0.05493164 C13.53125803 -0.05989951 14.90430782 -0.0666761 16.27734375 -0.07543945 C24.91018006 -0.12907915 33.41102941 0.10202535 42 1 C42 1.33 42 1.66 42 2 C32.19328855 2.73714878 22.39703634 3.14512296 12.5625 3.25 C11.54986084 3.27126953 10.53722168 3.29253906 9.49389648 3.31445312 C8.54844971 3.31896484 7.60300293 3.32347656 6.62890625 3.328125 C5.78400635 3.3374707 4.93910645 3.34681641 4.06860352 3.35644531 C3.38596436 3.23881836 2.7033252 3.12119141 2 3 C1.34 2.01 0.68 1.02 0 0 Z " fill="#3B3D85" transform="translate(270,255)"/>
<path d="M0 0 C0.33 0.66 0.66 1.32 1 2 C-0.09514336 4.98888882 -1.69525488 7.75451187 -3.1875 10.5625 C-3.58775391 11.35591797 -3.98800781 12.14933594 -4.40039062 12.96679688 C-4.79806641 13.72154297 -5.19574219 14.47628906 -5.60546875 15.25390625 C-5.96793701 15.94814697 -6.33040527 16.6423877 -6.70385742 17.35766602 C-8.31551792 19.39979074 -9.47284038 19.63688127 -12 20 C-10.37885498 15.20178341 -7.70723241 11.3327141 -4.875 7.1875 C-4.40707031 6.49462891 -3.93914062 5.80175781 -3.45703125 5.08789062 C-2.30887563 3.38908895 -1.15500633 1.69415136 0 0 Z " fill="#45478B" transform="translate(282,210)"/>
<path d="M0 0 C0.9867097 3.11074833 0.96838493 5.16442757 0.22265625 8.328125 C0.03896484 9.12734375 -0.14472656 9.9265625 -0.33398438 10.75 C-0.53314453 11.575 -0.73230469 12.4 -0.9375 13.25 C-1.13279297 14.09046875 -1.32808594 14.9309375 -1.52929688 15.796875 C-2.01142286 17.86648898 -2.50463863 19.93351395 -3 22 C-3.99 21.67 -4.98 21.34 -6 21 C-4.55613874 13.78069368 -2.42211826 6.94889267 0 0 Z " fill="#64669E" transform="translate(270,201)"/>
<path d="M0 0 C-0.33 0.99 -0.66 1.98 -1 3 C-8.09727428 3.10808032 -14.96094956 2.93854006 -22 2 C-22 1.67 -22 1.34 -22 1 C-19.6460153 0.83034345 -17.29186616 0.6642065 -14.9375 0.5 C-13.62652344 0.4071875 -12.31554687 0.314375 -10.96484375 0.21875 C-7.29924005 0.0165098 -3.67009048 -0.0381804 0 0 Z " fill="#4B4D8E" transform="translate(223,255)"/>
<path d="M0 0 C1.32 0.33 2.64 0.66 4 1 C4 3.64 4 6.28 4 9 C3.01 9 2.02 9 1 9 C1.875 4.25 1.875 4.25 3 2 C2.34 2 1.68 2 1 2 C0.7525 2.969375 0.505 3.93875 0.25 4.9375 C-0.1625 5.948125 -0.575 6.95875 -1 8 C-3.125 8.875 -3.125 8.875 -5 9 C-3.50163895 5.88801935 -1.80066242 2.9465385 0 0 Z " fill="#45478B" transform="translate(249,266)"/>
<path d="M0 0 C-0.54981916 6.04801071 -1.90429574 11.30601106 -4 17 C-4.33 17 -4.66 17 -5 17 C-4.85764543 15.27054347 -4.71095618 13.54144346 -4.5625 11.8125 C-4.48128906 10.84957031 -4.40007812 9.88664062 -4.31640625 8.89453125 C-4.02120361 6.19397381 -3.70400608 3.62487034 -3 1 C-1 0 -1 0 0 0 Z " fill="#494A8D" transform="translate(248,288)"/>
<path d="M0 0 C0.54269531 0.37511719 1.08539063 0.75023437 1.64453125 1.13671875 C1.64453125 1.46671875 1.64453125 1.79671875 1.64453125 2.13671875 C0.99226563 2.33007812 0.34 2.5234375 -0.33203125 2.72265625 C-5.03260855 4.12312323 -9.71387766 5.54880601 -14.35546875 7.13671875 C-13.35546875 4.13671875 -13.35546875 4.13671875 -10.9921875 2.6796875 C-10.01894531 2.23238281 -9.04570312 1.78507813 -8.04296875 1.32421875 C-7.07746094 0.86402344 -6.11195313 0.40382812 -5.1171875 -0.0703125 C-2.35546875 -0.86328125 -2.35546875 -0.86328125 0 0 Z " fill="#E0E0EC" transform="translate(281.35546875,245.86328125)"/>
<path d="M0 0 C0.66 0.33 1.32 0.66 2 1 C1 4 1 4 -1.65234375 5.640625 C-2.73644531 6.17171875 -3.82054687 6.7028125 -4.9375 7.25 C-6.01902344 7.79140625 -7.10054687 8.3328125 -8.21484375 8.890625 C-9.13394531 9.25671875 -10.05304688 9.6228125 -11 10 C-11.66 9.67 -12.32 9.34 -13 9 C-8.71 6.03 -4.42 3.06 0 0 Z " fill="#45478B" transform="translate(225,272)"/>
<path d="M0 0 C11.34618411 0.85208497 11.34618411 0.85208497 16 3 C16.33 3.99 16.66 4.98 17 6 C5.47835991 2.92482916 5.47835991 2.92482916 0 1 C0 0.67 0 0.34 0 0 Z " fill="#696AA1" transform="translate(202,242)"/>
<path d="M0 0 C1.04285156 0.27328125 2.08570313 0.5465625 3.16015625 0.828125 C5.9375 1.75 5.9375 1.75 8.9375 3.75 C2.43899789 3.23446121 -3.72476532 2.28332291 -10.0625 0.75 C-6.38571362 -1.69528444 -4.15248535 -1.13202822 0 0 Z " fill="#6A6BA2" transform="translate(301.0625,267.25)"/>
<path d="M0 0 C0.66 0.33 1.32 0.66 2 1 C-2.62 3.97 -7.24 6.94 -12 10 C-12.33 9.34 -12.66 8.68 -13 8 C-10.61664713 5.32561064 -8.12963852 3.84841988 -4.9375 2.25 C-4.05964844 1.80140625 -3.18179687 1.3528125 -2.27734375 0.890625 C-1.52582031 0.59671875 -0.77429688 0.3028125 0 0 Z " fill="#4B4D8F" transform="translate(300,230)"/>
<path d="M0 0 C3.54243452 1.36591169 6.92627929 2.90931484 10.3125 4.625 C11.63701172 5.29402344 11.63701172 5.29402344 12.98828125 5.9765625 C13.65214844 6.31429687 14.31601563 6.65203125 15 7 C14.67 7.99 14.34 8.98 14 10 C11.66390677 8.52504318 9.33109833 7.04531255 7 5.5625 C6.33226562 5.14162109 5.66453125 4.72074219 4.9765625 4.28710938 C3.30037435 3.21811183 1.64799163 2.11197395 0 1 C0 0.67 0 0.34 0 0 Z " fill="#5B5D98" transform="translate(207,228)"/>
<path d="M0 0 C3.21289677 4.81934515 5.1989715 9.73172489 4.6875 15.5625 C4.460625 16.366875 4.23375 17.17125 4 18 C3.67 18 3.34 18 3 18 C2.49490792 15.75113762 1.99610821 13.50086131 1.5 11.25 C1.2215625 9.99703125 0.943125 8.7440625 0.65625 7.453125 C0 4 0 4 0 0 Z " fill="#7071A6" transform="translate(241,201)"/>
<path d="M0 0 C0.66 0 1.32 0 2 0 C3.65 3.96 5.3 7.92 7 12 C6.01 12.33 5.02 12.66 4 13 C3.32942113 11.2097939 2.6636531 9.41778511 2 7.625 C1.62875 6.62726563 1.2575 5.62953125 0.875 4.6015625 C0 2 0 2 0 0 Z " fill="#E8E8F0" transform="translate(260,268)"/>
<path d="M0 0 C0.99 0.33 1.98 0.66 3 1 C1.88266271 2.50571657 0.75589965 4.00444292 -0.375 5.5 C-1.00148438 6.3353125 -1.62796875 7.170625 -2.2734375 8.03125 C-2.84320313 8.6809375 -3.41296875 9.330625 -4 10 C-4.66 10 -5.32 10 -6 10 C-4.6302836 6.00499382 -2.74277578 3.19990508 0 0 Z " fill="#E2E2EC" transform="translate(269,237)"/>
<path d="M0 0 C0.66 0 1.32 0 2 0 C1.54554036 1.41791408 1.08625056 2.83428046 0.625 4.25 C0.36976563 5.03890625 0.11453125 5.8278125 -0.1484375 6.640625 C-0.95173667 8.86627958 -1.89711662 10.90931672 -3 13 C-4.00821159 10.31143576 -4.22736824 8.58296785 -3.17578125 5.88671875 C-2.16604698 3.89205069 -1.11893353 1.9353228 0 0 Z " fill="#E3E3ED" transform="translate(250,268)"/>
<path d="M0 0 C3.66161578 1.22053859 4.16270474 2.36782304 6.1875 5.5625 C6.71730469 6.38878906 7.24710937 7.21507812 7.79296875 8.06640625 C8.19128906 8.70449219 8.58960938 9.34257812 9 10 C6.51339545 9.6121322 5.27654781 9.29037521 3.515625 7.44140625 C3.09796875 6.82136719 2.6803125 6.20132812 2.25 5.5625 C1.82203125 4.94503906 1.3940625 4.32757813 0.953125 3.69140625 C0 2 0 2 0 0 Z " fill="#E5E5EF" transform="translate(263,266)"/>
<path d="M0 0 C-2.85584773 1.90389849 -4.9311762 2.69462177 -8.1875 3.625 C-9.08855469 3.88539063 -9.98960937 4.14578125 -10.91796875 4.4140625 C-11.94857422 4.70410156 -11.94857422 4.70410156 -13 5 C-13 4.34 -13 3.68 -13 3 C-13.66 2.67 -14.32 2.34 -15 2 C-13.43883181 1.66048381 -11.87598662 1.32867456 -10.3125 1 C-9.44238281 0.814375 -8.57226562 0.62875 -7.67578125 0.4375 C-5.06287036 0.01027953 -2.64186962 -0.07616201 0 0 Z " fill="#545694" transform="translate(306,243)"/>
<path d="M0 0 C0.66 0 1.32 0 2 0 C0.6062718 4.43458973 -1.60582235 6.87378374 -5 10 C-5.33 9.34 -5.66 8.68 -6 8 C-5.04956626 6.66102417 -4.08940853 5.32894573 -3.125 4 C-2.59132812 3.2575 -2.05765625 2.515 -1.5078125 1.75 C-1.01023438 1.1725 -0.51265625 0.595 0 0 Z " fill="#E0E1EC" transform="translate(247,266)"/>
<path d="M0 0 C3.15330554 0.60694155 5.18888867 1.6416665 7.75 3.5625 C8.67039062 4.24505859 8.67039062 4.24505859 9.609375 4.94140625 C10.29773438 5.46541016 10.29773438 5.46541016 11 6 C10.34 6.66 9.68 7.32 9 8 C7.49712782 6.85793642 5.99776716 5.71125043 4.5 4.5625 C3.6646875 3.92441406 2.829375 3.28632813 1.96875 2.62890625 C1.3190625 2.09136719 0.669375 1.55382812 0 1 C0 0.67 0 0.34 0 0 Z " fill="#E5E5EE" transform="translate(265,264)"/>
<path d="M0 0 C0.99 0.33 1.98 0.66 3 1 C3.94921875 3.28515625 3.94921875 3.28515625 4.6875 6.0625 C4.93886719 6.98160156 5.19023437 7.90070313 5.44921875 8.84765625 C5.63097656 9.55792969 5.81273437 10.26820313 6 11 C5.34 11 4.68 11 4 11 C3.32880451 9.5437455 2.66318193 8.08492133 2 6.625 C1.62875 5.81289062 1.2575 5.00078125 0.875 4.1640625 C0 2 0 2 0 0 Z " fill="#E4E4EE" transform="translate(246,234)"/>
<path d="M0 0 C0.99 0.33 1.98 0.66 3 1 C1.93106782 2.03590338 0.84421512 3.05333942 -0.25 4.0625 C-1.15492188 4.91521484 -1.15492188 4.91521484 -2.078125 5.78515625 C-4 7 -4 7 -6.234375 6.68359375 C-6.81703125 6.45800781 -7.3996875 6.23242188 -8 6 C-6.7391988 4.96680187 -5.46596742 3.94875621 -4.1875 2.9375 C-3.47980469 2.36902344 -2.77210938 1.80054688 -2.04296875 1.21484375 C-1.36878906 0.81394531 -0.69460937 0.41304688 0 0 Z " fill="#E5E5EE" transform="translate(244,264)"/>
<path d="M0 0 C-4.95 2.475 -4.95 2.475 -10 5 C-10.33 4.01 -10.66 3.02 -11 2 C-4.5 -1.125 -4.5 -1.125 0 0 Z " fill="#E3E4EE" transform="translate(245,262)"/>
<path d="M0 0 C3.9492568 0.55105909 7.34920174 1.38935371 11 3 C10.67 3.99 10.34 4.98 10 6 C6.7 4.35 3.4 2.7 0 1 C0 0.67 0 0.34 0 0 Z " fill="#E5E6EF" transform="translate(267,261)"/>
<path d="M0 0 C1.48199902 0.44909061 2.96055236 0.90956564 4.4375 1.375 C5.26121094 1.63023437 6.08492187 1.88546875 6.93359375 2.1484375 C9 3 9 3 10 5 C5.80530429 4.40075776 1.99000166 3.42500059 -2 2 C-1.34 1.34 -0.68 0.68 0 0 Z " fill="#E1E1EC" transform="translate(235,247)"/>
<path d="M0 0 C4.43458973 1.3937282 6.87378374 3.60582235 10 7 C6.65580848 7 5.93159679 6.52480606 3.3125 4.625 C2.68988281 4.18414062 2.06726563 3.74328125 1.42578125 3.2890625 C0.95527344 2.86367187 0.48476562 2.43828125 0 2 C0 1.34 0 0.68 0 0 Z " fill="#E6E6EF" transform="translate(237,242)"/>
<path d="M0 0 C0.99 0 1.98 0 3 0 C4.38671875 1.4609375 4.38671875 1.4609375 5.6875 3.375 C6.12449219 4.00148437 6.56148437 4.62796875 7.01171875 5.2734375 C8 7 8 7 8 9 C4.67336597 7.89112199 4.21086541 7.28198895 2.3125 4.5 C1.87550781 3.8709375 1.43851563 3.241875 0.98828125 2.59375 C0 1 0 1 0 0 Z " fill="#E8E8F0" transform="translate(241,238)"/>
<path d="M0 0 C4.10958767 1.45044271 7.43258745 3.51110752 11 6 C10.01 6.495 10.01 6.495 9 7 C6.6171875 6.00390625 6.6171875 6.00390625 3.875 4.5625 C2.96492188 4.08941406 2.05484375 3.61632812 1.1171875 3.12890625 C0.41851562 2.75636719 -0.28015625 2.38382812 -1 2 C-0.67 1.34 -0.34 0.68 0 0 Z " fill="#535493" transform="translate(291,276)"/>
<path d="M0 0 C0 0.66 0 1.32 0 2 C-1.42578125 3.32421875 -1.42578125 3.32421875 -3.3125 4.6875 C-3.92738281 5.14511719 -4.54226563 5.60273438 -5.17578125 6.07421875 C-5.77777344 6.37972656 -6.37976563 6.68523437 -7 7 C-7.99 6.67 -8.98 6.34 -10 6 C-8.71283353 4.99421411 -7.42011342 3.99553202 -6.125 3 C-5.40570313 2.443125 -4.68640625 1.88625 -3.9453125 1.3125 C-2 0 -2 0 0 0 Z " fill="#EBECF2" transform="translate(275,242)"/>
<path d="M0 0 C0.66 1.32 1.32 2.64 2 4 C0.625 7.25 0.625 7.25 -1 10 C-1.66 10 -2.32 10 -3 10 C-2.01 6.7 -1.02 3.4 0 0 Z " fill="#DFDFEB" transform="translate(263,235)"/>
</svg>
